# xmcd CD database file
#
# Track frame offsets:
#	150
#	1038
#	19494
#	43194
#	58936
#	75544
#	95425
#	112658
#	132357
#	154029
#	166469
#	188079
#	207584
#	226190
#	247199
#
# Disc length: 3635 seconds
#
# Revision: 0
# Processed by: cddbd v1.5.2PL0 Copyright (c) Steve Scherf et al.
# Submitted via: CDex 1.70beta2
#
DISCID=c10e310f
DTITLE=Hermann Hesse - Demian
DYEAR=2006
DGENRE=Hoerbuch
TTITLE0=01 Demian
TTITLE1=02 Demian
TTITLE2=03 Demian
TTITLE3=04 Demian
TTITLE4=05 Demian
TTITLE5=06 Demian
TTITLE6=07 Demian
TTITLE7=08 Demian
TTITLE8=09 Demian
TTITLE9=10 Demian
TTITLE10=11 Demian
TTITLE11=12 Demian
TTITLE12=13 Demian
TTITLE13=14 Demian
TTITLE14=15 Demian
EXTD=YEAR: 2006
EXTT0=
EXTT1=
EXTT2=
EXTT3=
EXTT4=
EXTT5=
EXTT6=
EXTT7=
EXTT8=
EXTT9=
EXTT10=
EXTT11=
EXTT12=
EXTT13=
EXTT14=
PLAYORDER=
